<?xml version="1.0" encoding="utf-8" standalone="no"?>
<!DOCTYPE svg PUBLIC "-//W3C//DTD SVG 1.1//EN"
  "http://www.w3.org/Graphics/SVG/1.1/DTD/svg11.dtd">
<!-- Created with matplotlib (http://matplotlib.org/) -->
<svg height="720pt" version="1.1" viewBox="0 0 720 720" width="720pt" xmlns="http://www.w3.org/2000/svg" xmlns:xlink="http://www.w3.org/1999/xlink">
 <defs>
  <style type="text/css">
*{stroke-linecap:butt;stroke-linejoin:round;}
  </style>
 </defs>
 <g id="figure_1">
  <g id="patch_1">
   <path d="M 0 720 
L 720 720 
L 720 0 
L 0 0 
z
" style="fill:#ffffff;"/>
  </g>
  <g id="axes_1">
   <g id="patch_2">
    <path clip-path="url(#pa181fb9936)" d="M 360 358.2 
C 359.522793 358.2 359.064644 358.389772 358.727208 358.727208 
C 358.389772 359.064644 358.2 359.522793 358.2 360 
" style="fill:none;stroke:#ff0000;stroke-linejoin:miter;stroke-width:3;"/>
   </g>
   <g id="patch_3">
    <path clip-path="url(#pa181fb9936)" d="M 358.2 360 
C 358.2 360.477207 358.389772 360.935356 358.727208 361.272792 
C 359.064644 361.610228 359.522793 361.8 360 361.8 
" style="fill:none;stroke:#ff0000;stroke-linejoin:miter;stroke-width:3;"/>
   </g>
   <g id="patch_4">
    <path clip-path="url(#pa181fb9936)" d="M 360 361.8 
C 360.954413 361.8 361.870712 361.420456 362.545584 360.745584 
C 363.220456 360.070712 363.6 359.154413 363.6 358.2 
" style="fill:none;stroke:#ff0000;stroke-linejoin:miter;stroke-width:3;"/>
   </g>
   <g id="patch_5">
    <path clip-path="url(#pa181fb9936)" d="M 363.6 358.2 
C 363.6 356.76838 363.030685 355.393931 362.018377 354.381623 
C 361.006069 353.369315 359.63162 352.8 358.2 352.8 
" style="fill:none;stroke:#ff0000;stroke-linejoin:miter;stroke-width:3;"/>
   </g>
   <g id="patch_6">
    <path clip-path="url(#pa181fb9936)" d="M 358.2 352.8 
C 355.813967 352.8 353.523219 353.748859 351.836039 355.436039 
C 350.148859 357.123219 349.2 359.413967 349.2 361.8 
" style="fill:none;stroke:#ff0000;stroke-linejoin:miter;stroke-width:3;"/>
   </g>
   <g id="patch_7">
    <path clip-path="url(#pa181fb9936)" d="M 349.2 361.8 
C 349.2 365.617653 350.718174 369.28285 353.417662 371.982338 
C 356.11715 374.681826 359.782347 376.2 363.6 376.2 
" style="fill:none;stroke:#ff0000;stroke-linejoin:miter;stroke-width:3;"/>
   </g>
   <g id="patch_8">
    <path clip-path="url(#pa181fb9936)" d="M 363.6 376.2 
C 369.803686 376.2 375.75963 373.732967 380.146299 369.346299 
C 384.532967 364.95963 387 359.003686 387 352.8 
" style="fill:none;stroke:#ff0000;stroke-linejoin:miter;stroke-width:3;"/>
   </g>
   <g id="patch_9">
    <path clip-path="url(#pa181fb9936)" d="M 387 352.8 
C 387 342.778662 383.014793 333.15752 375.928636 326.071364 
C 368.84248 318.985207 359.221338 315 349.2 315 
" style="fill:none;stroke:#ff0000;stroke-linejoin:miter;stroke-width:3;"/>
   </g>
   <g id="patch_10">
    <path clip-path="url(#pa181fb9936)" d="M 349.2 315 
C 332.974976 315 317.39789 321.45224 305.925065 332.925065 
C 294.45224 344.39789 288 359.974976 288 376.2 
" style="fill:none;stroke:#ff0000;stroke-linejoin:miter;stroke-width:3;"/>
   </g>
   <g id="patch_11">
    <path clip-path="url(#pa181fb9936)" d="M 288 376.2 
C 288 402.446363 298.437448 427.64459 316.996429 446.203571 
C 335.55541 464.762552 360.753637 475.2 387 475.2 
" style="fill:none;stroke:#ff0000;stroke-linejoin:miter;stroke-width:3;"/>
   </g>
   <g id="patch_12">
    <path clip-path="url(#pa181fb9936)" d="M 387 475.2 
C 429.471387 475.2 470.246701 458.310312 500.278506 428.278506 
C 530.310312 398.246701 547.2 357.471387 547.2 315 
" style="fill:none;stroke:#ff0000;stroke-linejoin:miter;stroke-width:3;"/>
   </g>
   <g id="patch_13">
    <path clip-path="url(#pa181fb9936)" d="M 361.8 360 
C 361.8 359.522793 361.610228 359.064644 361.272792 358.727208 
C 360.935356 358.389772 360.477207 358.2 360 358.2 
" style="fill:none;stroke:#0000ff;stroke-linejoin:miter;stroke-width:3;"/>
   </g>
   <g id="patch_14">
    <path clip-path="url(#pa181fb9936)" d="M 360 358.2 
C 359.522793 358.2 359.064644 358.389772 358.727208 358.727208 
C 358.389772 359.064644 358.2 359.522793 358.2 360 
" style="fill:none;stroke:#0000ff;stroke-linejoin:miter;stroke-width:3;"/>
   </g>
   <g id="patch_15">
    <path clip-path="url(#pa181fb9936)" d="M 358.2 360 
C 358.2 360.954413 358.579544 361.870712 359.254416 362.545584 
C 359.929288 363.220456 360.845587 363.6 361.8 363.6 
" style="fill:none;stroke:#0000ff;stroke-linejoin:miter;stroke-width:3;"/>
   </g>
   <g id="patch_16">
    <path clip-path="url(#pa181fb9936)" d="M 361.8 363.6 
C 363.23162 363.6 364.606069 363.030685 365.618377 362.018377 
C 366.630685 361.006069 367.2 359.63162 367.2 358.2 
" style="fill:none;stroke:#0000ff;stroke-linejoin:miter;stroke-width:3;"/>
   </g>
   <g id="patch_17">
    <path clip-path="url(#pa181fb9936)" d="M 367.2 358.2 
C 367.2 355.813967 366.251141 353.523219 364.563961 351.836039 
C 362.876781 350.148859 360.586033 349.2 358.2 349.2 
" style="fill:none;stroke:#0000ff;stroke-linejoin:miter;stroke-width:3;"/>
   </g>
   <g id="patch_18">
    <path clip-path="url(#pa181fb9936)" d="M 358.2 349.2 
C 354.382347 349.2 350.71715 350.718174 348.017662 353.417662 
C 345.318174 356.11715 343.8 359.782347 343.8 363.6 
" style="fill:none;stroke:#0000ff;stroke-linejoin:miter;stroke-width:3;"/>
   </g>
   <g id="patch_19">
    <path clip-path="url(#pa181fb9936)" d="M 343.8 363.6 
C 343.8 369.803686 346.267033 375.75963 350.653701 380.146299 
C 355.04037 384.532967 360.996314 387 367.2 387 
" style="fill:none;stroke:#0000ff;stroke-linejoin:miter;stroke-width:3;"/>
   </g>
   <g id="patch_20">
    <path clip-path="url(#pa181fb9936)" d="M 367.2 387 
C 377.221338 387 386.84248 383.014793 393.928636 375.928636 
C 401.014793 368.84248 405 359.221338 405 349.2 
" style="fill:none;stroke:#0000ff;stroke-linejoin:miter;stroke-width:3;"/>
   </g>
   <g id="patch_21">
    <path clip-path="url(#pa181fb9936)" d="M 405 349.2 
C 405 332.974976 398.54776 317.39789 387.074935 305.925065 
C 375.60211 294.45224 360.025024 288 343.8 288 
" style="fill:none;stroke:#0000ff;stroke-linejoin:miter;stroke-width:3;"/>
   </g>
   <g id="patch_22">
    <path clip-path="url(#pa181fb9936)" d="M 343.8 288 
C 317.553637 288 292.35541 298.437448 273.796429 316.996429 
C 255.237448 335.55541 244.8 360.753637 244.8 387 
" style="fill:none;stroke:#0000ff;stroke-linejoin:miter;stroke-width:3;"/>
   </g>
   <g id="patch_23">
    <path clip-path="url(#pa181fb9936)" d="M 244.8 387 
C 244.8 429.471387 261.689688 470.246701 291.721494 500.278506 
C 321.753299 530.310312 362.528613 547.2 405 547.2 
" style="fill:none;stroke:#0000ff;stroke-linejoin:miter;stroke-width:3;"/>
   </g>
   <g id="patch_24">
    <path clip-path="url(#pa181fb9936)" d="M 405 547.2 
C 473.717749 547.2 539.691291 519.872864 588.282078 471.282078 
C 636.872864 422.691291 664.2 356.717749 664.2 288 
" style="fill:none;stroke:#0000ff;stroke-linejoin:miter;stroke-width:3;"/>
   </g>
   <g id="patch_25">
    <path clip-path="url(#pa181fb9936)" d="M 361.272792 358.727208 
C 360.935356 358.389772 360.477207 358.2 360 358.2 
C 359.522793 358.2 359.064644 358.389772 358.727208 358.727208 
" style="fill:none;stroke:#008000;stroke-linejoin:miter;stroke-width:3;"/>
   </g>
   <g id="patch_26">
    <path clip-path="url(#pa181fb9936)" d="M 358.727208 358.727208 
C 358.389772 359.064644 358.2 359.522793 358.2 360 
C 358.2 360.477207 358.389772 360.935356 358.727208 361.272792 
" style="fill:none;stroke:#008000;stroke-linejoin:miter;stroke-width:3;"/>
   </g>
   <g id="patch_27">
    <path clip-path="url(#pa181fb9936)" d="M 358.727208 361.272792 
C 359.40208 361.947664 360.318379 362.327208 361.272792 362.327208 
C 362.227205 362.327208 363.143505 361.947664 363.818377 361.272792 
" style="fill:none;stroke:#008000;stroke-linejoin:miter;stroke-width:3;"/>
   </g>
   <g id="patch_28">
    <path clip-path="url(#pa181fb9936)" d="M 363.818377 361.272792 
C 364.830685 360.260484 365.4 358.886035 365.4 357.454416 
C 365.4 356.022796 364.830685 354.648347 363.818377 353.636039 
" style="fill:none;stroke:#008000;stroke-linejoin:miter;stroke-width:3;"/>
   </g>
   <g id="patch_29">
    <path clip-path="url(#pa181fb9936)" d="M 363.818377 353.636039 
C 362.131197 351.948859 359.840449 351 357.454416 351 
C 355.068383 351 352.777635 351.948859 351.090455 353.636039 
" style="fill:none;stroke:#008000;stroke-linejoin:miter;stroke-width:3;"/>
   </g>
   <g id="patch_30">
    <path clip-path="url(#pa181fb9936)" d="M 351.090455 353.636039 
C 348.390966 356.335527 346.872792 360.000724 346.872792 363.818377 
C 346.872792 367.636029 348.390966 371.301226 351.090455 374.000714 
" style="fill:none;stroke:#008000;stroke-linejoin:miter;stroke-width:3;"/>
   </g>
   <g id="patch_31">
    <path clip-path="url(#pa181fb9936)" d="M 351.090455 374.000714 
C 355.477123 378.387382 361.433068 380.854416 367.636753 380.854416 
C 373.840439 380.854416 379.796384 378.387382 384.183052 374.000714 
" style="fill:none;stroke:#008000;stroke-linejoin:miter;stroke-width:3;"/>
   </g>
   <g id="patch_32">
    <path clip-path="url(#pa181fb9936)" d="M 384.183052 374.000714 
C 391.269208 366.914558 395.254416 357.293416 395.254416 347.272078 
C 395.254416 337.25074 391.269208 327.629598 384.183052 320.543442 
" style="fill:none;stroke:#008000;stroke-linejoin:miter;stroke-width:3;"/>
   </g>
   <g id="patch_33">
    <path clip-path="url(#pa181fb9936)" d="M 384.183052 320.543442 
C 372.710227 309.070617 357.133141 302.618377 340.908117 302.618377 
C 324.683093 302.618377 309.106006 309.070617 297.633182 320.543442 
" style="fill:none;stroke:#008000;stroke-linejoin:miter;stroke-width:3;"/>
   </g>
   <g id="patch_34">
    <path clip-path="url(#pa181fb9936)" d="M 297.633182 320.543442 
C 279.074201 339.102423 268.636753 364.30065 268.636753 390.547013 
C 268.636753 416.793376 279.074201 441.991603 297.633182 460.550584 
" style="fill:none;stroke:#008000;stroke-linejoin:miter;stroke-width:3;"/>
   </g>
   <g id="patch_35">
    <path clip-path="url(#pa181fb9936)" d="M 297.633182 460.550584 
C 327.664987 490.58239 368.440302 507.472078 410.911688 507.472078 
C 453.383075 507.472078 494.158389 490.58239 524.190195 460.550584 
" style="fill:none;stroke:#008000;stroke-linejoin:miter;stroke-width:3;"/>
   </g>
  </g>
 </g>
 <defs>
  <clipPath id="pa181fb9936">
   <rect height="720" width="720" x="0" y="0"/>
  </clipPath>
 </defs>
</svg>
